<?xml version="1.0" encoding="UTF-8"?>
<svg version="1.1" xmlns="http://www.w3.org/2000/svg" width="623" height="374">
<path d="M0 0 C0 1.32 0 2.64 0 4 C-4.01585016 5.02197084 -8.02728197 6.02103146 -12.078125 6.89453125 C-36.89271754 12.29744775 -57.80213338 24.619936 -72 46 C-85.50573348 67.3974817 -91.00850786 93.18300151 -85.82202148 118.21655273 C-81.60627954 135.55826072 -73.44188333 150.21879257 -61 163 C-60.41476562 163.63550781 -59.82953125 164.27101562 -59.2265625 164.92578125 C-46.13372004 178.786983 -24.67523734 189.44878286 -5.4453125 190.125 C-4.63835937 190.08375 -3.83140625 190.0425 -3 190 C-3.56847656 189.68289062 -4.13695312 189.36578125 -4.72265625 189.0390625 C-15.03934368 182.80426976 -19.25514496 174.8771659 -22.2734375 163.39453125 C-26.11166363 145.4621737 -23.35139545 127.80402128 -13.59375 112.171875 C-11.38721787 109.16493416 -9.02662511 107.16187508 -6 105 C-6.61488281 104.50371094 -7.22976563 104.00742188 -7.86328125 103.49609375 C-13.78595609 98.51802415 -17.52028778 94.90782506 -18.3046875 86.8828125 C-18.50015545 81.81214389 -18.50483593 78.06576474 -16.3125 73.4375 C-11.67620067 68.5505899 -7.60597661 65.13607459 -0.6875 64.875 C0.199375 64.91625 1.08625 64.9575 2 65 C3 68 3 68 1.875 71 C-0.7323206 75.17171296 -3.42433375 76.47477792 -8 78 C-9.60819739 81.21639478 -9.46861231 84.51144167 -9 88 C-6.71933968 92.39238284 -3.99187484 95.11697928 0 98 C-0.04640625 97.3709375 -0.0928125 96.741875 -0.140625 96.09375 C-0.40576909 89.80604731 0.23695206 85.16181247 4 80 C7.48331326 76.81525645 10.95075552 76.42519249 15.5234375 76.578125 C21.25741539 77.55489095 26.13081883 80.56551212 30.6875 84.0625 C32 86 32 86 31.8125 88.1875 C31 90 31 90 30 91 C26.94797167 91.44140906 24.04564013 91.49628784 21 91 C19.29413425 89.37347684 17.6222454 87.70993434 16 86 C12.81555347 85.82202611 12.81555347 85.82202611 10 87 C7.67648794 89.81006988 7.67648794 89.81006988 8.25 92.9375 C8.92346094 95.68746549 9.50733505 97.62243271 11 100 C12.79799742 100.98327403 12.79799742 100.98327403 14.9375 101.625 C21.47776244 104.28526752 25.97072832 109.18458298 31 114 C32.55386366 115.38475232 34.11528583 116.7611181 35.6875 118.125 C36.33074219 118.68445313 36.97398437 119.24390625 37.63671875 119.8203125 C38.31154297 120.40425781 38.31154297 120.40425781 39 121 C38.67 122.32 38.34 123.64 38 125 C33.47699639 125.25201486 30.65149708 124.66776831 26.625 122.625 C19.21690976 119.08635879 11.26604312 116.2026674 3.01171875 118.5703125 C-0.44198515 119.92891238 -1.90849775 120.86274662 -4 124 C-5.0064931 132.09115881 -3.63967506 138.6709329 0.5625 145.5625 C8.60151536 153.60151536 18.91440229 158.1042656 29 163 C36.22554036 166.51256196 45.29292983 171.58585965 49 179 C68.0671553 172.01433425 82.02634822 153.77144807 90.3125 135.921875 C94.10852351 127.33043241 96.3008219 118.66203536 97.5078125 109.36328125 C98 107 98 107 100 105 C102.625 105.375 102.625 105.375 105 106 C106.28939279 135.70378956 96.2301249 162.94873379 76.5 185.1875 C75.00864466 186.79970655 73.5088232 188.40412931 72 190 C71.28328125 190.76957031 70.5665625 191.53914062 69.828125 192.33203125 C66.35010369 195.96041814 63.82631478 198.33575352 59 200 C58.73289796 203.5221238 58.73289796 203.5221238 60.03125 206.7109375 C60.5159375 207.26007813 61.000625 207.80921875 61.5 208.375 C65.10793383 212.82934485 67.58695093 217.68824226 70.10742188 222.80810547 C71.9110959 226.36514821 73.36688357 229.15826177 77 231 C80.48809191 230.22969878 80.48809191 230.22969878 84 229 C86.9375 228.875 86.9375 228.875 89 229 C89.3328134 235.43439233 88.95397148 239.58171864 84.55859375 244.66796875 C80.72611377 248.41152808 77.50423761 249.83721085 72.15625 250.12109375 C69.19846796 249.95498643 66.70415033 249.17873219 64 248 C64.474375 248.9075 64.94875 249.815 65.4375 250.75 C67.42160793 254.8769445 68.13689499 257.92848494 67.9921875 262.484375 C67.96705078 263.76441406 67.96705078 263.76441406 67.94140625 265.0703125 C67.89751712 266.84136787 67.84557624 268.61224401 67.78515625 270.3828125 C67.71276571 274.76573044 67.88612459 278.24698706 69.5703125 282.328125 C71 286 71 286 70 291 C66.04 291 62.08 291 58 291 C59.216875 292.44375 60.43375 293.8875 61.6875 295.375 C67.95487769 303.24255923 72.81691703 311.16502302 71.7421875 321.47265625 C70.81959866 327.03335083 69.38002236 331.46111283 66 336 C63.25 336.9375 63.25 336.9375 61 337 C60.54173828 336.29037109 60.54173828 336.29037109 60.07421875 335.56640625 C55.65963641 329.18702388 50.11851849 324.70320282 44 320 C44.2165625 320.51304687 44.433125 321.02609375 44.65625 321.5546875 C48.16918102 331.21524782 49.31362977 344.0820061 45.0625 353.6875 C40.21957585 361.56912165 32.97150846 365.43010953 24.48046875 368.46875 C21.88426201 369.02478798 20.47476735 368.87684064 18 368 C17.3125 366.2109375 17.3125 366.2109375 17 364 C18.40301619 362.07962159 20.0211322 360.60509422 21.75 358.9765625 C23.24871417 356.99909699 23.24871417 356.99909699 22.98828125 354.2265625 C21.73182228 350.12444745 19.68193417 347.19956034 17.1875 343.75 C13.24673035 338.08797464 10.01607607 332.65685495 8 326 C7.81050781 325.38382812 7.62101563 324.76765625 7.42578125 324.1328125 C5.46763613 314.32412226 7.35748204 304.4690227 10 295 C9.54625 295.495 9.0925 295.99 8.625 296.5 C7 298 7 298 5 298 C1.28410718 306.36075886 2.82418085 316.18135639 4 325 C2.2734375 325.68359375 2.2734375 325.68359375 0 326 C-9.47473509 320.91809663 -15.39165419 311.84430754 -19 302 C-21.00975167 294.95921436 -20.10550652 288.54580741 -17 282 C-14.21908737 277.89484326 -11.56040916 275.03888703 -7 273 C-8.65 272.34 -10.3 271.68 -12 271 C-12.375 268.9375 -12.375 268.9375 -12 266 C-10.875 264.53125 -10.875 264.53125 -9.375 262.9375 C-6.48133814 259.84731309 -4.82748849 256.78146414 -3.0625 252.9375 C-0.2137277 246.93929341 2.93797161 243.03101419 9 240 C8.57847656 239.51789063 8.15695312 239.03578125 7.72265625 238.5390625 C7.17480469 237.90742188 6.62695312 237.27578125 6.0625 236.625 C5.51722656 235.99851563 4.97195313 235.37203125 4.41015625 234.7265625 C2.0470301 231.83320583 1.88517079 230.03804466 1.9375 226.375 C1.94652344 225.55773437 1.95554687 224.74046875 1.96484375 223.8984375 C1.97644531 223.27195313 1.98804688 222.64546875 2 222 C1.43829102 222.02094727 0.87658203 222.04189453 0.29785156 222.06347656 C-32.42281295 223.11213072 -60.14602912 214.25382921 -84.37109375 191.9140625 C-105.38405008 172.04664569 -118.1565626 144.95848014 -119.21875 115.90234375 C-119.99192875 82.47993508 -108.82035611 53.97376996 -85.74609375 29.75 C-69.34333299 13.32390672 -23.6808219 -13.75015465 0 0 Z M12 220 C12.33 220.66 12.66 221.32 13 222 C17.25731568 222.40749675 17.25731568 222.40749675 20.875 220.5 C21.24625 220.005 21.6175 219.51 22 219 C18.49064814 219 15.43515002 219.37542727 12 220 Z M32 238 C32 238.99 32 239.98 32 241 C32.66 240.67 33.32 240.34 34 240 C34 239.34 34 238.68 34 238 C33.34 238 32.68 238 32 238 Z M53 238 C53.33 238.99 53.66 239.98 54 241 C54 240.01 54 239.02 54 238 C53.67 238 53.34 238 53 238 Z M26 285 C26 287.64 26 290.28 26 293 C26.33 293 26.66 293 27 293 C27 290.36 27 287.72 27 285 C26.67 285 26.34 285 26 285 Z " fill="#F6F8F8" transform="translate(517,5)"/>
<path d="M0 0 C-3.11292096 1.77465587 -5.707547 2.33440496 -9.25 2.75 C-32.48278056 6.38100844 -54.09025104 20.63941775 -67.9375 39.375 C-84.1400058 62.20747554 -89.79755685 89.15584993 -85.3359375 116.8515625 C-80.38841367 141.01555571 -65.1840381 163.15480045 -44.70703125 176.71484375 C-26.47149841 188.21995794 -7.60057975 193.3717166 13.921875 193.30273438 C21.28815669 193.45416324 21.28815669 193.45416324 25.08203125 196.36328125 C28.9387259 201.66525455 30.51109473 205.35576848 30 212 C29.67 212.66 29.34 213.32 29 214 C9.83070308 220.07915203 -11.61068077 220.02122505 -31 215 C-32.08796875 214.73316406 -33.1759375 214.46632812 -34.296875 214.19140625 C-60.00240692 207.13805908 -83.37197153 188.70225529 -96.82519531 165.81445312 C-110.61378194 141.5046019 -116.12083463 113.50857862 -110 86 C-109.75507813 84.82695313 -109.51015625 83.65390625 -109.2578125 82.4453125 C-106.9172446 72.4823642 -102.970374 63.89638925 -98 55 C-97.443125 53.9996875 -96.88625 52.999375 -96.3125 51.96875 C-91.80275505 44.42359979 -86.06395599 38.29412074 -80 32 C-79.35417969 31.27941406 -78.70835937 30.55882813 -78.04296875 29.81640625 C-62.32746264 12.79983428 -36.24614745 1.50704295 -13.2890625 0.046875 C-8.85745292 -0.04387468 -4.43203909 -0.07583337 0 0 Z " fill="#15BC92" transform="translate(513,6)"/>
<path d="M0 0 C-0.25390625 1.87109375 -0.25390625 1.87109375 -1 4 C-2.77734375 5.16015625 -2.77734375 5.16015625 -4.9375 6.0625 C-8.23258319 7.45588364 -8.90387694 7.85581541 -11 11 C-12.00213048 16.93894169 -11.38645216 22.20323344 -7.90234375 27.171875 C-4.0491112 30.8747761 2.51367091 35 8 35 C8.33 34.34 8.66 33.68 9 33 C9.66 33.66 10.32 34.32 11 35 C12.19625 35.37125 13.3925 35.7425 14.625 36.125 C19.14541293 37.73768785 21.67563656 40.39531559 24.90234375 43.859375 C28.28184133 47.30809878 32.12717336 50.13123953 36 53 C35.01 53.495 35.01 53.495 34 54 C31.69499046 53.10754759 29.48719352 52.16501765 27.25 51.125 C18.87227905 47.23787948 9.60293629 45.02859649 0.625 48.1875 C-2.53455095 50.3690947 -4.17951702 51.56908977 -6 55 C-7.08559175 63.35539721 -6.16189194 71.12966644 -1.546875 78.23828125 C6.05337542 87.8046834 17.61953349 92.89377652 28.375 98.125 C43.71290335 105.64835605 51.34965888 115.7780529 57 132 C57 132.66 57 133.32 57 134 C54.98492462 132.99471631 52.97204278 131.98577992 50.96484375 130.96484375 C49.96130859 130.45630859 49.96130859 130.45630859 48.9375 129.9375 C48.26589844 129.59589844 47.59429688 129.25429687 46.90234375 128.90234375 C42.90393232 127.00576667 39.37958593 126.75547585 35 126.5 C28.33333333 126.11111111 28.33333333 126.11111111 25 125 C23.06757014 124.7917018 21.13470158 124.58635147 19.19946289 124.40600586 C6.06698703 123.13740727 -2.87362827 120.09761864 -12 110 C-18.15402964 101.22070564 -19.49469765 90.49614479 -19.375 80.0625 C-19.38660156 79.05509766 -19.39820313 78.04769531 -19.41015625 77.00976562 C-19.36295686 64.77725619 -16.18184896 52.13850321 -7.5625 43.0625 C-4.65015859 40.35453342 -1.69544434 38.53225741 2 37 C0.32125718 35.88083812 -1.37449798 34.78343947 -3.12109375 33.7734375 C-8.67493083 30.4205308 -12.33502753 27.42833743 -14 21 C-14.71773253 15.68877929 -14.67166768 11.4776689 -12.4375 6.5625 C-8.92000507 2.86462072 -5.3081128 0 0 0 Z " fill="#0B4D7C" transform="translate(516,73)"/>
<path d="M0 0 C162.03 0 324.06 0 491 0 C491 1.65 491 3.3 491 5 C328.97 5 166.94 5 0 5 C0 3.35 0 1.7 0 0 Z " fill="#1C1B17" transform="translate(2,307)"/>
<path d="M0 0 C7.59 0 15.18 0 23 0 C23 2.31 23 4.62 23 7 C21.02 7.99 21.02 7.99 19 9 C19 13.29 19 17.58 19 22 C20.4874965 20.25707481 21.96472492 18.50538246 23.4375 16.75 C24.26121094 15.77546875 25.08492188 14.8009375 25.93359375 13.796875 C27.74849057 11.3404173 28.61157441 9.96615903 29 7 C28.01 7 27.02 7 26 7 C26 4.69 26 2.38 26 0 C32.6 0 39.2 0 46 0 C46 2.31 46 4.62 46 7 C45.030625 7.268125 44.06125 7.53625 43.0625 7.8125 C37.15822736 10.25648171 33.71187673 16.04241408 30 21 C32.28271755 25.61879732 34.58276652 30.22822404 36.90527344 34.82714844 C37.60259917 36.21122493 38.29635274 37.59711112 38.98535156 38.98535156 C39.87243647 40.7679165 40.77949892 42.5404979 41.6875 44.3125 C42.46673828 45.85357422 42.46673828 45.85357422 43.26171875 47.42578125 C44.8335743 50.1777682 44.8335743 50.1777682 47.70703125 51.48046875 C48.46371094 51.98191406 49.22039062 52.48335938 50 53 C50 54.98 50 56.96 50 59 C42.08 59 34.16 59 26 59 C26 57.02 26 55.04 26 53 C26.99 52.34 27.98 51.68 29 51 C26.36 45.72 23.72 40.44 21 35 C20.34 35 19.68 35 19 35 C19 40.28 19 45.56 19 51 C20.32 51.66 21.64 52.32 23 53 C23 54.98 23 56.96 23 59 C15.41 59 7.82 59 0 59 C0 57.02 0 55.04 0 53 C0.639375 52.773125 1.27875 52.54625 1.9375 52.3125 C4.19481641 51.19416515 4.19481641 51.19416515 4.6184082 48.88867188 C5.0782488 45.4076521 5.16223635 41.97335031 5.16796875 38.46875 C5.17129715 37.75521362 5.17462555 37.04167725 5.17805481 36.30651855 C5.18309825 34.80379884 5.18546394 33.30106801 5.18530273 31.79833984 C5.18749302 29.50729903 5.20568601 27.21673727 5.22460938 24.92578125 C5.22754314 23.46093914 5.22952805 21.99609475 5.23046875 20.53125 C5.23765427 19.85090698 5.24483978 19.17056396 5.25224304 18.46960449 C5.23359565 14.56531051 4.92669146 11.43556554 3 8 C2.01 7.67 1.02 7.34 0 7 C0 4.69 0 2.38 0 0 Z " fill="#1C1B17" transform="translate(283,235)"/>
<path d="M0 0 C0.33 0 0.66 0 1 0 C0.1860258 14.10888617 -8.49422754 27.18266941 -14.8125 39.546875 C-15.34875 40.60390625 -15.885 41.6609375 -16.4375 42.75 C-16.91058594 43.67296875 -17.38367188 44.5959375 -17.87109375 45.546875 C-20.32231309 50.87340008 -20.83359389 56.20570522 -20 62 C-17.10020801 69.58151722 -11.95890176 75.82929772 -7.0546875 82.203125 C0.18810883 92.06214054 1.36671705 103.0630032 0 115 C-1.08928264 118.35088741 -2.53809059 120.50708417 -5 123 C-5.54269531 123.55945313 -6.08539062 124.11890625 -6.64453125 124.6953125 C-11.01069366 128.7756539 -15.85107369 132 -22 132 C-20.79618552 129.50638429 -19.54571278 127.31856917 -18 125 C-17.45935561 120.17375988 -18.39487061 117.69745981 -21.125 113.75 C-21.76179687 112.79738281 -22.39859375 111.84476562 -23.0546875 110.86328125 C-23.69664062 109.91839844 -24.33859375 108.97351563 -25 108 C-32.81587527 96.0960978 -36.05252494 85.1657357 -33.4140625 70.8125 C-30.78703148 61.17201918 -25.82774777 52.66985203 -21 44 C-8.94893316 22.70251018 -8.94893316 22.70251018 0 0 Z " fill="#8EC741" transform="translate(561,238)"/>
<path d="M0 0 C6.27 0 12.54 0 19 0 C24.94 11.88 30.88 23.76 37 36 C37.020625 32.65875 37.04125 29.3175 37.0625 25.875 C37.071604 24.83327637 37.08070801 23.79155273 37.09008789 22.71826172 C37.16627811 15.79354074 37.16627811 15.79354074 36 9 C33.53744315 7.54708727 33.53744315 7.54708727 31 7 C31 4.69 31 2.38 31 0 C37.27 0 43.54 0 50 0 C50 2.31 50 4.62 50 7 C49.195625 7.226875 48.39125 7.45375 47.5625 7.6875 C46.716875 8.120625 45.87125 8.55375 45 9 C44.08647196 12.22944427 43.86059877 15.35534828 43.79467773 18.69848633 C43.77473251 19.59904251 43.75478729 20.49959869 43.73423767 21.42744446 C43.70916893 22.86521492 43.70916893 22.86521492 43.68359375 24.33203125 C43.66281265 25.32377853 43.64203156 26.31552582 43.62062073 27.33732605 C43.55539948 30.49564899 43.49636798 33.65405288 43.4375 36.8125 C43.39428869 38.95769056 43.35067357 41.10287302 43.30664062 43.24804688 C43.19974623 48.4986156 43.09840183 53.74926552 43 59 C39.7 59 36.4 59 33 59 C32.53625977 58.06728271 32.07251953 57.13456543 31.59472656 56.17358398 C29.85982592 52.68556754 28.1222026 49.19891326 26.38378906 45.71264648 C25.63435726 44.20878021 24.88564646 42.7045544 24.13769531 41.19995117 C23.05727325 39.02686226 21.97419242 36.85511568 20.890625 34.68359375 C20.56128967 34.01976181 20.23195435 33.35592987 19.89263916 32.67198181 C19.57260925 32.03184647 19.25257935 31.39171112 18.92285156 30.73217773 C18.50981781 29.90277931 18.50981781 29.90277931 18.08843994 29.05662537 C16.46869012 25.99608114 14.71799672 23.00649426 13 20 C13 29.9 13 39.8 13 50 C14.65 50.66 16.3 51.32 18 52 C18 54.31 18 56.62 18 59 C12.06 59 6.12 59 0 59 C0 56.69 0 54.38 0 52 C0.639375 51.87625 1.27875 51.7525 1.9375 51.625 C2.618125 51.41875 3.29875 51.2125 4 51 C5.71802382 47.56395235 5.1196618 43.61561104 5.09765625 39.8359375 C5.09553383 38.47512558 5.09553383 38.47512558 5.09336853 37.08682251 C5.08776096 34.18284845 5.07520718 31.27895085 5.0625 28.375 C5.05748598 26.40885528 5.0529229 24.44270935 5.04882812 22.4765625 C5.03778906 17.6510121 5.02051935 12.82551903 5 8 C3.35 7.67 1.7 7.34 0 7 C0 4.69 0 2.38 0 0 Z " fill="#1C1B17" transform="translate(402,235)"/>
<path d="M0 0 C7.1048376 4.20877047 11.22892873 9.95679867 13.8203125 17.69921875 C16.10398785 28.29938026 16.00449472 40.49772418 10.55078125 50.08984375 C6.8439749 55.57665117 3.10628016 59.37036863 -3.44921875 61.08984375 C-10.77635595 61.88935181 -17.49546243 61.83153782 -23.44921875 57.08984375 C-30.86486039 49.45460452 -33.12454636 40.69151564 -33.63671875 30.27734375 C-33.4434754 19.17658676 -30.18005234 10.36886566 -22.328125 2.53515625 C-16.23526137 -2.15166192 -7.09264166 -2.63570256 0 0 Z M-15.44921875 8.08984375 C-21.55493777 18.13722948 -21.91798528 30.62424809 -19.6953125 41.921875 C-17.80917544 49.21971274 -17.80917544 49.21971274 -12.44921875 54.08984375 C-8.34186863 54.68727649 -6.2571505 54.58562005 -2.69921875 52.40234375 C2.84097614 45.92964081 3.01262946 35.04127981 2.77734375 26.9453125 C2.18015415 19.41866421 1.10842698 11.64748948 -4.44921875 6.08984375 C-8.99567243 4.44806881 -11.58131688 5.29178708 -15.44921875 8.08984375 Z " fill="#1C1B17" transform="translate(217.44921875,234.91015625)"/>
<path d="M0 0 C12.21 0 24.42 0 37 0 C37.99510727 3.98042908 38.10032114 7.1653166 38.0625 11.25 C38.05347656 12.51328125 38.04445312 13.7765625 38.03515625 15.078125 C38.02355469 16.04234375 38.01195312 17.0065625 38 18 C36.35 18 34.7 18 33 18 C32.54427083 15.98177083 32.08854167 13.96354167 31.6328125 11.9453125 C31.09525572 9.79280036 31.09525572 9.79280036 29 8 C26.33757179 7.53709779 26.33757179 7.53709779 23.375 7.375 C21.60125 7.25125 19.8275 7.1275 18 7 C18 12.94 18 18.88 18 25 C21.465 24.505 21.465 24.505 25 24 C25.33 21.69 25.66 19.38 26 17 C27.32 17 28.64 17 30 17 C30 24.59 30 32.18 30 40 C28.68 40 27.36 40 26 40 C25.01 36.535 25.01 36.535 24 33 C22.02 32.67 20.04 32.34 18 32 C18.33 38.27 18.66 44.54 19 51 C26.92119671 52.41454224 26.92119671 52.41454224 33 49 C34.37920748 46.35608529 35.14830011 43.88631629 36 41 C37.65 41 39.3 41 41 41 C41.09896353 47.23470254 40.701923 52.68269299 40 59 C26.8 59 13.6 59 0 59 C0 57.02 0 55.04 0 53 C1.32 52.34 2.64 51.68 4 51 C4 37.14 4 23.28 4 9 C2.68 8.34 1.36 7.68 0 7 C0 4.69 0 2.38 0 0 Z " fill="#1C1B17" transform="translate(43,235)"/>
<path d="M0 0 C12.54 0 25.08 0 38 0 C38.84186703 4.20933513 39.10535527 7.56982867 39.0625 11.8125 C39.05347656 12.97394531 39.04445313 14.13539063 39.03515625 15.33203125 C39.02355469 16.21246094 39.01195312 17.09289062 39 18 C37.35 18 35.7 18 34 18 C33.57682292 15.98177083 33.15364583 13.96354167 32.73046875 11.9453125 C32.07691162 9.62953451 32.07691162 9.62953451 29 8 C25.34087399 7.43868689 21.69742878 7.26099497 18 7 C18 12.94 18 18.88 18 25 C21.96 24.505 21.96 24.505 26 24 C26.33 21.69 26.66 19.38 27 17 C28.32 17 29.64 17 31 17 C31 24.59 31 32.18 31 40 C29.68 40 28.36 40 27 40 C26.01 36.535 26.01 36.535 25 33 C21.535 32.505 21.535 32.505 18 32 C18.14179038 34.22942748 18.28859698 36.45853628 18.4375 38.6875 C18.55931641 40.54955078 18.55931641 40.54955078 18.68359375 42.44921875 C18.94491317 45.38180337 19.34798379 48.13441617 20 51 C24.02930133 51.90453703 26.7157954 52.07105115 30.75 51.0625 C35.19020081 48.24468026 35.61198758 45.98051516 37 41 C38.65 41 40.3 41 42 41 C41.67 46.94 41.34 52.88 41 59 C27.47 59 13.94 59 0 59 C0 57.02 0 55.04 0 53 C1.65 52.34 3.3 51.68 5 51 C5 37.14 5 23.28 5 9 C2.525 8.01 2.525 8.01 0 7 C0 4.69 0 2.38 0 0 Z " fill="#1C1B17" transform="translate(453,235)"/>
<path d="M0 0 C4.31236921 -0.08789715 8.6245045 -0.1406923 12.9375 -0.1875 C14.14986328 -0.21263672 15.36222656 -0.23777344 16.61132812 -0.26367188 C23.38645429 -0.3187542 29.90881218 -0.3194767 36 3 C40.31974011 8.07569463 41.33371184 12.26304527 41.2109375 18.84375 C40.68117998 24.25904906 39.28119194 27.93688329 35.0625 31.4375 C30.77694881 33.62400571 27.54381386 34.1255765 22.75 34.0625 C21.85796875 34.05347656 20.9659375 34.04445313 20.046875 34.03515625 C19.37140625 34.02355469 18.6959375 34.01195312 18 34 C18.14151828 36.0836309 18.28837936 38.16689938 18.4375 40.25 C18.51871094 41.41015625 18.59992187 42.5703125 18.68359375 43.765625 C19.03467131 47.45544898 19.03467131 47.45544898 20 51 C21.9837767 52.28436734 21.9837767 52.28436734 24 53 C24 54.98 24 56.96 24 59 C16.08 59 8.16 59 0 59 C0 57.02 0 55.04 0 53 C1.65 52.34 3.3 51.68 5 51 C5 37.14 5 23.28 5 9 C2.525 8.01 2.525 8.01 0 7 C0 4.69 0 2.38 0 0 Z M18 8 C18 14.6 18 21.2 18 28 C24.63943034 27.78082095 24.63943034 27.78082095 26.9375 25 C28.77528238 19.81096739 28.73981758 15.13241536 26.9375 9.9375 C26.298125 9.298125 25.65875 8.65875 25 8 C22.69 8 20.38 8 18 8 Z " fill="#1C1B17" transform="translate(1,235)"/>
<path d="M0 0 C1.06992188 -0.03738281 2.13984375 -0.07476562 3.2421875 -0.11328125 C6.125 0.3125 6.125 0.3125 7.69116211 2.05932617 C9.10370148 4.2790309 10.05068268 6.32115298 10.94921875 8.7890625 C11.25537109 9.624375 11.56152344 10.4596875 11.87695312 11.3203125 C12.34004883 12.61582031 12.34004883 12.61582031 12.8125 13.9375 C13.13283203 14.80890625 13.45316406 15.6803125 13.78320312 16.578125 C16.125 23.02930104 16.125 23.02930104 16.125 25.3125 C16.785 25.3125 17.445 25.3125 18.125 25.3125 C18.26615234 24.35923828 18.26615234 24.35923828 18.41015625 23.38671875 C19.39839225 19.13676393 20.97270616 15.18205027 22.5625 11.125 C22.87509766 10.30580078 23.18769531 9.48660156 23.50976562 8.64257812 C23.81462891 7.85947266 24.11949219 7.07636719 24.43359375 6.26953125 C24.71001709 5.55772705 24.98644043 4.84592285 25.27124023 4.11254883 C26.125 2.3125 26.125 2.3125 28.125 0.3125 C30.9453125 0.1171875 30.9453125 0.1171875 34.25 0.1875 C35.34570312 0.20554687 36.44140625 0.22359375 37.5703125 0.2421875 C38.83488281 0.27699219 38.83488281 0.27699219 40.125 0.3125 C41.73801773 3.53853545 41.24553599 7.05960038 41.22265625 10.6015625 C41.2212413 11.41998627 41.21982635 12.23841003 41.21836853 13.08163452 C41.2127629 15.70029325 41.20020948 18.31886704 41.1875 20.9375 C41.18248572 22.71093627 41.17792269 24.48437387 41.17382812 26.2578125 C41.16279164 30.60940782 41.14552325 34.9609395 41.125 39.3125 C34.375 40.4375 34.375 40.4375 32.125 39.3125 C31.63 26.9375 31.63 26.9375 31.125 14.3125 C30.49851563 16.02179688 29.87203125 17.73109375 29.2265625 19.4921875 C28.40133044 21.72406513 27.57579383 23.95583017 26.75 26.1875 C26.13125 27.87939453 26.13125 27.87939453 25.5 29.60546875 C24.90058594 31.22001953 24.90058594 31.22001953 24.2890625 32.8671875 C23.92248535 33.86218262 23.5559082 34.85717773 23.17822266 35.88232422 C22.125 38.3125 22.125 38.3125 20.125 40.3125 C14.85526406 40.87311021 14.85526406 40.87311021 12.5612793 39.11206055 C10.80534024 36.911988 10.01794977 34.86135753 9.08203125 32.20703125 C8.76468018 31.32120361 8.4473291 30.43537598 8.12036133 29.52270508 C7.73001709 28.4014624 7.33967285 27.28021973 6.9375 26.125 C5.679375 22.556875 4.42125 18.98875 3.125 15.3125 C2.795 23.2325 2.465 31.1525 2.125 39.3125 C-0.60747348 40.67873674 -2.85698902 40.440926 -5.875 40.3125 C-7.71776509 38.46973491 -7.00374411 35.88286241 -7.01394653 33.43115234 C-7.0119223 32.60824707 -7.00989807 31.7853418 -7.0078125 30.9375 C-7.00876923 30.09783691 -7.00972595 29.25817383 -7.01071167 28.39306641 C-7.01139348 26.61425705 -7.00953917 24.83544523 -7.00537109 23.05664062 C-7.00002283 20.32416224 -7.00531605 17.59184824 -7.01171875 14.859375 C-7.01105797 13.1354163 -7.00977681 11.41145771 -7.0078125 9.6875 C-7.00983673 8.86459473 -7.01186096 8.04168945 -7.01394653 7.19384766 C-6.9856965 0.40517476 -6.72307472 0.15316357 0 0 Z " fill="#1C1B17" transform="translate(118.875,323.6875)"/>
<path d="M0 0 C3.3 0 6.6 0 10 0 C10.71139414 2.43906563 11.42268495 4.87816144 12.13354492 7.31738281 C12.75831381 9.45785252 13.38480845 11.59781919 14.01293945 13.73730469 C15.6766711 19.41332159 17.31098638 25.09466666 18.8828125 30.796875 C19.18566162 31.87904297 19.48851074 32.96121094 19.80053711 34.07617188 C20.38229071 36.15786657 20.95378726 38.24246086 21.51391602 40.33007812 C23.31935461 47.03808018 23.31935461 47.03808018 28 52 C28.99 52.495 28.99 52.495 30 53 C30 54.98 30 56.96 30 59 C21.75 59 13.5 59 5 59 C5 57.02 5 55.04 5 53 C6.98 52.505 6.98 52.505 9 52 C8.67 48.04 8.34 44.08 8 40 C1.565 40.495 1.565 40.495 -5 41 C-6.89604092 46.5721221 -6.89604092 46.5721221 -7 52 C-5.68 52.33 -4.36 52.66 -3 53 C-3 54.98 -3 56.96 -3 59 C-8.61 59 -14.22 59 -20 59 C-20 57.02 -20 55.04 -20 53 C-18.80578353 51.89393307 -17.60807189 50.79131973 -16.39013672 49.71142578 C-13.07145948 45.62573428 -12.0477692 39.89871399 -10.5625 34.9375 C-10.17779541 33.69645508 -9.79309082 32.45541016 -9.39672852 31.17675781 C-8.24794734 27.45598188 -7.12130957 23.72913509 -6 20 C-5.36230266 17.90224538 -4.72430757 15.80458125 -4.0859375 13.70703125 C-2.70352037 9.14390829 -1.34392097 4.57460157 0 0 Z M1 17 C0.32844651 19.26949102 -0.3373963 21.5403961 -1 23.8125 C-1.37125 25.07707031 -1.7425 26.34164063 -2.125 27.64453125 C-3.12616509 30.90587415 -3.12616509 30.90587415 -3 34 C-0.03 34 2.94 34 6 34 C5.45018084 27.95198929 4.09570426 22.69398894 2 17 C1.67 17 1.34 17 1 17 Z " fill="#1C1B17" transform="translate(105,235)"/>
<path d="M0 0 C0.66 0 1.32 0 2 0 C2.08636719 0.61746094 2.17273438 1.23492187 2.26171875 1.87109375 C3.97637216 12.20620651 8.39312397 18.61423023 15.453125 26.18359375 C18.39766391 29.43974798 21.15214939 32.8081027 23.875 36.25 C24.33922363 36.82838623 24.80344727 37.40677246 25.28173828 38.00268555 C31.39839341 45.79107731 33.09965734 52.07993329 32 62 C30.96804322 65.50686611 29.64828623 68.74021965 28 72 C27.34 72 26.68 72 26 72 C25.566875 71.030625 25.13375 70.06125 24.6875 69.0625 C21.47496299 63.4120803 16.03480368 59.9364251 11 56 C2.1772455 48.8401011 -5.14256535 41.22234698 -6.37109375 29.44140625 C-6.55415601 18.74841634 -4.84405901 9.68811803 0 0 Z " fill="#D6DF24" transform="translate(553,267)"/>
<path d="M0 0 C1.921875 1.09375 1.921875 1.09375 4.671875 3.09375 C4.671875 2.10375 4.671875 1.11375 4.671875 0.09375 C6.321875 0.09375 7.971875 0.09375 9.671875 0.09375 C9.671875 7.35375 9.671875 14.61375 9.671875 22.09375 C8.021875 22.09375 6.371875 22.09375 4.671875 22.09375 C4.50171875 21.42988281 4.3315625 20.76601562 4.15625 20.08203125 C2.23912847 12.85649587 2.23912847 12.85649587 -2.328125 7.09375 C-5.86020554 5.8913396 -7.49167584 5.69220309 -10.875 7.31640625 C-15.3444276 10.55460618 -16.27554708 14.82520139 -17.328125 20.09375 C-17.64156007 23.47133198 -17.73901213 26.82764377 -17.765625 30.21875 C-17.7756958 31.0533374 -17.7857666 31.8879248 -17.79614258 32.74780273 C-17.70056136 39.63032822 -16.73127325 46.35683116 -12.078125 51.65625 C-8.48080319 53.53666822 -6.34345704 53.65730537 -2.328125 53.09375 C3.06750841 50.44883166 5.07660512 47.28428976 7.671875 42.09375 C9.546875 42.34375 9.546875 42.34375 11.671875 43.09375 C12.8046875 45.140625 12.8046875 45.140625 13.671875 47.09375 C5.45828277 58.83161408 5.45828277 58.83161408 -1.328125 61.09375 C-8.75118138 61.76457435 -15.23208117 61.73056186 -21.328125 57.09375 C-27.990609 50.96244354 -30.92712271 43.72750343 -31.56640625 34.74609375 C-31.78885961 23.61171765 -30.33397586 13.52379569 -22.94140625 4.71875 C-16.78292756 -1.48446341 -8.34781808 -3.24948623 0 0 Z " fill="#1C1B17" transform="translate(267.328125,234.90625)"/>
<path d="M0 0 C0.763125 0.495 1.52625 0.99 2.3125 1.5 C2.9725 0.84 3.6325 0.18 4.3125 -0.5 C5.6325 -0.5 6.9525 -0.5 8.3125 -0.5 C9.22410286 6.85793733 9.42709026 14.08982977 9.3125 21.5 C7.6625 21.5 6.0125 21.5 4.3125 21.5 C4.07015625 20.75234375 3.8278125 20.0046875 3.578125 19.234375 C3.24296875 18.24953125 2.9078125 17.2646875 2.5625 16.25 C2.23765625 15.27546875 1.9128125 14.3009375 1.578125 13.296875 C0.21531606 10.2852355 -1.17278243 8.61919888 -3.6875 6.5 C-6.51106396 5.48641294 -8.2901911 5.44185723 -11.25 5.875 C-15.76048078 8.88198719 -17.20739225 14.20053657 -18.28125 19.34375 C-19.48908336 28.7276861 -19.80620464 38.7759927 -15.6875 47.5 C-13.73324599 49.92801255 -12.43214881 51.1276756 -9.6875 52.5 C-5.65650618 52.7579836 -2.03179581 52.60373761 1.16796875 49.9765625 C2.67771717 48.20959769 4.02479045 46.43367533 5.3125 44.5 C5.9725 43.51 6.6325 42.52 7.3125 41.5 C11.06496515 42.95256715 11.06496515 42.95256715 12.125 45.296875 C12.46079279 49.24244029 9.81062356 51.4794813 7.390625 54.37109375 C2.59578596 59.28309991 -1.87377347 60.71967099 -8.6875 61.0625 C-16.38191865 60.77177889 -20.85123814 57.67615568 -26 52.1875 C-32.15478948 44.39366332 -33.14874331 35.12513114 -32.47265625 25.4140625 C-31.08153854 15.10654267 -27.62240096 7.4481185 -19.5546875 0.77734375 C-13.97061357 -3.04272356 -5.99619353 -2.43912957 0 0 Z " fill="#1C1B17" transform="translate(168.6875,235.5)"/>
<path d="M0 0 C7.92 0 15.84 0 24 0 C24 2.31 24 4.62 24 7 C22.35 7.66 20.7 8.32 19 9 C19 22.86 19 36.72 19 51 C25.25892178 52.04315363 27.30387309 52.08857987 33 50 C35.14161874 46.64790111 35.45430875 42.9107873 36 39 C37.65 39 39.3 39 41 39 C41.02696009 41.7708983 41.04681952 44.5415345 41.0625 47.3125 C41.07087891 48.09818359 41.07925781 48.88386719 41.08789062 49.69335938 C41.09111328 50.45068359 41.09433594 51.20800781 41.09765625 51.98828125 C41.10289307 52.68477783 41.10812988 53.38127441 41.11352539 54.09887695 C41 56 41 56 40 59 C26.8 59 13.6 59 0 59 C0 57.02 0 55.04 0 53 C2.475 52.505 2.475 52.505 5 52 C5 37.48 5 22.96 5 8 C3.35 7.67 1.7 7.34 0 7 C0 4.69 0 2.38 0 0 Z " fill="#1C1B17" transform="translate(334,235)"/>
<path d="M0 0 C1 3 1 3 -0.15234375 5.34765625 C-6.26096741 14.63757626 -12.32661093 23.09342882 -21.1171875 30.015625 C-25.07197707 34.18374347 -25.25915141 39.0453417 -25.1875 44.5625 C-25.18105469 45.65691406 -25.17460938 46.75132812 -25.16796875 47.87890625 C-25.01649324 50.69353265 -24.63784164 53.2598323 -24 56 C-31.94866279 52.39962101 -36.28801727 45.61246459 -40 38 C-40.6496875 36.7934375 -40.6496875 36.7934375 -41.3125 35.5625 C-42.97500834 29.36587802 -42.81781446 23.85210869 -39.8125 18.125 C-36.20747866 12.38329467 -32.46560894 9.89482559 -26 8 C-23.73508858 7.66544099 -21.46326342 7.37530843 -19.1875 7.125 C-11.81902171 6.14357477 -6.15694005 4.1046267 0 0 Z " fill="#29ABE2" transform="translate(542,271)"/>
<path d="M0 0 C0.66 0 1.32 0 2 0 C1.95617187 1.0621875 1.91234375 2.124375 1.8671875 3.21875 C1.60081834 11.47186824 1.60081834 11.47186824 5.15234375 18.5625 C7.74952517 20.52500741 7.74952517 20.52500741 10.45703125 22.03125 C14.05655796 24.81798036 15.71309975 27.64332023 17 32 C17.37957821 36.04103712 17.24468343 40.01203819 17.0625 44.0625 C16.64757341 53.91481279 16.64757341 53.91481279 20 63 C12.82570241 63.824281 8.15173416 62.7353691 2.1328125 58.70703125 C-2.64986739 54.87913544 -5.10595748 49.99662665 -6 44 C-6.74586635 35.97628624 -5.69588191 28.83003754 -3.57275391 21.11938477 C-1.67568827 14.15083033 -0.7833355 7.17370405 0 0 Z " fill="#D91F60" transform="translate(565,230)"/>
<path d="M0 0 C7.92 0 15.84 0 24 0 C24 2.31 24 4.62 24 7 C22.35 7.66 20.7 8.32 19 9 C19 22.86 19 36.72 19 51 C20.65 51.66 22.3 52.32 24 53 C24 54.98 24 56.96 24 59 C16.08 59 8.16 59 0 59 C0 57.02 0 55.04 0 53 C0.639375 52.7525 1.27875 52.505 1.9375 52.25 C4.14536822 51.21386645 4.14536822 51.21386645 4.62181091 49.17401123 C4.99095736 47.05198143 5.12051157 45.11756257 5.11352539 42.96582031 C5.11344986 42.18531311 5.11337433 41.40480591 5.11329651 40.60064697 C5.10813522 39.76821472 5.10297394 38.93578247 5.09765625 38.078125 C5.0962413 37.21813904 5.09482635 36.35815308 5.09336853 35.47210693 C5.08778097 32.73136891 5.07523075 29.99071324 5.0625 27.25 C5.05748339 25.3893241 5.05292077 23.52864691 5.04882812 21.66796875 C5.03781561 17.11194754 5.02055951 12.55598772 5 8 C3.35 7.67 1.7 7.34 0 7 C0 4.69 0 2.38 0 0 Z " fill="#1C1B17" transform="translate(376,235)"/>
<path d="M0 0 C0.85142578 -0.020625 1.70285156 -0.04125 2.58007812 -0.0625 C8.64869403 -0.10004751 13.01609196 0.73323277 17.6875 4.9375 C19.3652289 8.38616496 19.58108288 11.55119491 18.8125 15.25 C17.37637449 17.8978564 15.75750037 19.91599956 13.8125 22.25 C14.58787109 23.69632812 14.58787109 23.69632812 15.37890625 25.171875 C16.0449029 26.44758689 16.71023282 27.72364701 17.375 29 C17.88836914 29.95132812 17.88836914 29.95132812 18.41210938 30.921875 C20.87632218 35.70095438 20.87632218 35.70095438 20.52734375 38.703125 C20.29144531 39.21359375 20.05554688 39.7240625 19.8125 40.25 C13.3059663 40.61829436 13.3059663 40.61829436 11.2109375 39.0546875 C9.51997074 36.87249017 8.69273801 34.77907534 7.75 32.1875 C6.36726645 28.35806934 6.36726645 28.35806934 3.8125 25.25 C1.24188689 24.60232207 1.24188689 24.60232207 -1.1875 24.25 C-1.17589844 25.32121094 -1.16429687 26.39242188 -1.15234375 27.49609375 C-1.14296701 28.89322743 -1.13386669 30.29036299 -1.125 31.6875 C-1.11662109 32.39455078 -1.10824219 33.10160156 -1.09960938 33.83007812 C-1.09096412 35.63693559 -1.13529989 37.44387603 -1.1875 39.25 C-2.1875 40.25 -2.1875 40.25 -5.125 40.375 C-8.1875 40.25 -8.1875 40.25 -10.1875 39.25 C-10.21214849 33.85653012 -10.23033531 28.46309275 -10.24243164 23.06958008 C-10.24747231 21.23331125 -10.25430477 19.39704646 -10.26293945 17.56079102 C-10.27501672 14.92723599 -10.28073081 12.29373384 -10.28515625 9.66015625 C-10.29031754 8.83411392 -10.29547882 8.00807159 -10.30079651 7.15699768 C-10.30099205 5.18763632 -10.24954152 3.21838386 -10.1875 1.25 C-7.96857557 -0.96892443 -2.97763804 0.0176322 0 0 Z M-1.1875 7.25 C-1.1875 10.55 -1.1875 13.85 -1.1875 17.25 C4.13420494 17.54562367 4.13420494 17.54562367 8.8125 15.25 C9.3125 12.25 9.3125 12.25 8.8125 9.25 C5.1683226 6.8205484 3.10008728 7.08820425 -1.1875 7.25 Z " fill="#1C1B17" transform="translate(275.1875,323.75)"/>
<path d="M0 0 C3.96 0 7.92 0 12 0 C13.88586674 4.88695733 15.75503918 9.77985397 17.60913086 14.67895508 C18.24196584 16.34409706 18.87930096 18.00753609 19.52124023 19.66918945 C20.4440716 22.06025911 21.3504576 24.45701928 22.25390625 26.85546875 C22.54342667 27.5952446 22.83294708 28.33502045 23.13124084 29.09721375 C24.62102318 33.10484148 25.39015074 35.8790697 24 40 C17.25 40.125 17.25 40.125 15 39 C14.10199905 36.37805894 13.60232897 33.71048036 13 31 C8.05 31 3.1 31 -2 31 C-2.33 32.98 -2.66 34.96 -3 37 C-4.1875 38.875 -4.1875 38.875 -6 40 C-9.1875 40.1875 -9.1875 40.1875 -12 40 C-13.47314099 35.41805658 -11.89075157 32.06965081 -10.25390625 27.734375 C-9.96394272 26.94097717 -9.67397919 26.14757935 -9.37522888 25.33013916 C-8.44774407 22.7995786 -7.50536311 20.27486592 -6.5625 17.75 C-5.93065093 16.0342183 -5.29977959 14.31807622 -4.66992188 12.6015625 C-3.12459097 8.39677729 -1.56587856 4.1971742 0 0 Z M5 10 C4.32739649 11.76858691 3.66211605 13.53996016 3 15.3125 C2.62875 16.29863281 2.2575 17.28476562 1.875 18.30078125 C0.84581498 21.00271656 0.84581498 21.00271656 1 24 C3.97 24 6.94 24 10 24 C8.51868325 16.84207314 8.51868325 16.84207314 6 10 C5.67 10 5.34 10 5 10 Z " fill="#1C1B17" transform="translate(177,324)"/>
<path d="M0 0 C0.33 0 0.66 0 1 0 C2.33533357 28.88277049 -9.32841156 56.25839798 -28.625 77.4375 C-32.51378229 81.59737367 -36.43860192 85.57895144 -41 89 C-41.99 89 -42.98 89 -44 89 C-44.84266711 87.25447527 -45.67380038 85.5033792 -46.5 83.75 C-46.9640625 82.77546875 -47.428125 81.8009375 -47.90625 80.796875 C-49 78 -49 78 -49 74 C-47.015625 72.46484375 -47.015625 72.46484375 -44.25 70.9375 C-37.2967329 66.75838065 -31.74826348 61.66752944 -26 56 C-25.2678125 55.28070313 -24.535625 54.56140625 -23.78125 53.8203125 C-9.4288027 38.72746117 -3.5068337 20.04754803 0 0 Z " fill="#09A6D7" transform="translate(618,113)"/>
<path d="M0 0 C0.33 0 0.66 0 1 0 C0.35007143 12.99857141 -5.52860695 24.89774692 -14.9765625 33.87890625 C-23.61978837 40.74872124 -32.4064189 43.18920157 -43.3125 43.0625 C-44.05306641 43.05798828 -44.79363281 43.05347656 -45.55664062 43.04882812 C-47.37112899 43.03712175 -49.18557534 43.01918898 -51 43 C-50.63648438 42.40574219 -50.27296875 41.81148438 -49.8984375 41.19921875 C-49.39570313 40.37035156 -48.89296875 39.54148437 -48.375 38.6875 C-47.82457031 37.78 -47.27414062 36.8725 -46.70703125 35.9375 C-45.0402528 33.06926798 -43.55531256 30.1489826 -42.0625 27.1875 C-39.18818823 21.85380335 -36.11047453 18.37603868 -30.1796875 16.390625 C-22.64589799 15.04048351 -14.51823917 15.82066837 -7 17 C-3.07842695 8.66801997 -3.07842695 8.66801997 0 0 Z " fill="#ED058E" transform="translate(559,231)"/>
<path d="M0 0 C7.4135625 0.38018269 13.13691466 4.79583169 17.96484375 10.140625 C21.86832196 14.82356162 24.50067436 20.11978099 27.29882812 25.50390625 C29.73446577 30.06736004 31.99479032 33.67876701 36 37 C40.2177461 37.61508797 43.1783948 36.79840245 47 35 C46.6298852 41.16857998 45.24224897 43.75775103 41 48 C37.51314718 50.5570254 34.22638802 50.4226388 30 50 C24.4270232 48.29684655 20.58022683 45.30108842 17.3046875 40.51171875 C14.60608276 35.31650065 13.39057055 29.6549869 12 24 C11.47353898 21.96880337 10.93821283 19.9401804 10.39892578 17.91235352 C9.90116504 16.0361249 9.41509809 14.15680541 8.9296875 12.27734375 C8.11108542 9.39159943 7.31368357 6.69624942 6 4 C3.49552484 2.78130071 3.49552484 2.78130071 1 2 C0.67 1.34 0.34 0.68 0 0 Z " fill="#A6296A" transform="translate(556,202)"/>
<path d="M0 0 C6.49072229 1.583103 10.87696101 4.81010725 14.5546875 10.3359375 C17.53184646 15.80247232 18.88409882 19.81130825 18 26 C15.61997865 33.5198547 11.58969098 38.60687268 5 43 C-0.04777113 44.68259038 -5.36774704 45.08770783 -10.36328125 43.0234375 C-14.06473657 40.81745133 -16.42368656 39.12026483 -18 35 C-18.0777346 32.66796188 -18.08967728 30.33160941 -18 28 C-17.01 27.67 -16.02 27.34 -15 27 C-14.4225 27.309375 -13.845 27.61875 -13.25 27.9375 C-9.97722528 29.48297695 -7.58194779 29.37054632 -4 29 C0.8717278 26.5641361 3.24582077 24.16508328 5 19 C5.87903941 13.73553062 5.39117569 10.08817559 2.5 5.5625 C2.0359375 4.92441406 1.571875 4.28632813 1.09375 3.62890625 C0 2 0 2 0 0 Z " fill="#683191" transform="translate(540,200)"/>
<path d="M0 0 C0 2.31 0 4.62 0 7 C-1.13888672 6.74863281 -1.13888672 6.74863281 -2.30078125 6.4921875 C-3.29464844 6.28851563 -4.28851563 6.08484375 -5.3125 5.875 C-6.29863281 5.66617187 -7.28476562 5.45734375 -8.30078125 5.2421875 C-11.22270283 4.69575237 -11.22270283 4.69575237 -14 7 C-12.97757688 9.7168884 -12.3034947 10.8228733 -9.7578125 12.30859375 C-8.88898438 12.68113281 -8.02015625 13.05367188 -7.125 13.4375 C-0.03400319 16.83953893 -0.03400319 16.83953893 2 21 C2.58866183 24.45767384 2.66393802 27.54979218 2 31 C-0.55076429 34.40101905 -3.08967062 36.41642078 -7 38 C-9.83984375 38.265625 -9.83984375 38.265625 -12.9375 38.25 C-13.95714844 38.25515625 -14.97679687 38.2603125 -16.02734375 38.265625 C-19.08726419 37.99220241 -21.26803698 37.38797406 -24 36 C-25.35439668 33.29120665 -25.06501451 30.99066732 -25 28 C-24.175 28.144375 -23.35 28.28875 -22.5 28.4375 C-21.345 28.623125 -20.19 28.80875 -19 29 C-18.31550781 29.11859375 -17.63101562 29.2371875 -16.92578125 29.359375 C-12.20113724 30.15440986 -12.20113724 30.15440986 -8 28 C-8.09557706 26.07989204 -8.09557706 26.07989204 -9 24 C-11.39777013 22.37922858 -11.39777013 22.37922858 -14.3125 21.0625 C-21.96010755 17.0797849 -21.96010755 17.0797849 -24 13 C-24.67759218 9.04737893 -24.35294387 5.93426319 -22.9375 2.1875 C-16.43246793 -5.15689104 -7.88184917 -3.86049755 0 0 Z " fill="#1C1B17" transform="translate(384,326)"/>
<path d="M0 0 C0 2.31 0 4.62 0 7 C-1.13888672 6.7834375 -1.13888672 6.7834375 -2.30078125 6.5625 C-3.29464844 6.376875 -4.28851563 6.19125 -5.3125 6 C-6.29863281 5.814375 -7.28476562 5.62875 -8.30078125 5.4375 C-11.03781805 4.92000204 -11.03781805 4.92000204 -14 5 C-14 6.98 -14 8.96 -14 11 C-13.175 11.226875 -12.35 11.45375 -11.5 11.6875 C-6.07545072 13.72170598 -1.25380332 16.11929502 2 21 C2.60362041 25.18614674 2.41698873 28.93436214 0.875 32.875 C-2.28182452 36.45273446 -5.06885798 37.8066209 -9.84765625 38.28515625 C-15.71092713 38.4522631 -20.07012537 38.28658309 -25 35 C-25 32.69 -25 30.38 -25 28 C-24.175 28.144375 -23.35 28.28875 -22.5 28.4375 C-21.345 28.623125 -20.19 28.80875 -19 29 C-18.31550781 29.11859375 -17.63101562 29.2371875 -16.92578125 29.359375 C-12.20113724 30.15440986 -12.20113724 30.15440986 -8 28 C-8.0075008 26.09556089 -8.0075008 26.09556089 -9 24 C-11.92448972 22.11537298 -11.92448972 22.11537298 -15.4375 20.5 C-21.64124078 17.50368173 -21.64124078 17.50368173 -23.3828125 15.05859375 C-24.50219265 11.32496501 -24.67239035 7.84223056 -24 4 C-17.55085546 -4.66027981 -8.97500676 -4.39592168 0 0 Z " fill="#1C1B17" transform="translate(354,326)"/>
<path d="M0 0 C1.02996094 -0.00128906 2.05992187 -0.00257813 3.12109375 -0.00390625 C4.74724609 0.00189453 4.74724609 0.00189453 6.40625 0.0078125 C7.49035156 0.00394531 8.57445312 0.00007813 9.69140625 -0.00390625 C10.72136719 -0.00261719 11.75132812 -0.00132812 12.8125 0 C14.24045898 0.00169189 14.24045898 0.00169189 15.69726562 0.00341797 C17.90625 0.1328125 17.90625 0.1328125 18.90625 1.1328125 C19.03125 3.6328125 19.03125 3.6328125 18.90625 6.1328125 C17.90625 7.1328125 17.90625 7.1328125 14.52734375 7.23046875 C13.13277923 7.22379619 11.73823257 7.21183782 10.34375 7.1953125 C9.63283203 7.19080078 8.92191406 7.18628906 8.18945312 7.18164062 C6.42834987 7.16982114 4.66728964 7.15188513 2.90625 7.1328125 C2.90625 10.1028125 2.90625 13.0728125 2.90625 16.1328125 C7.19625 16.1328125 11.48625 16.1328125 15.90625 16.1328125 C16.90625 20.1328125 16.90625 20.1328125 15.90625 22.1328125 C11.61625 22.1328125 7.32625 22.1328125 2.90625 22.1328125 C2.90625 25.4328125 2.90625 28.7328125 2.90625 32.1328125 C4.51306641 32.11541016 4.51306641 32.11541016 6.15234375 32.09765625 C7.54947743 32.08827951 8.94661299 32.07917919 10.34375 32.0703125 C11.05080078 32.06193359 11.75785156 32.05355469 12.48632812 32.04492188 C14.29318559 32.03627662 16.10012603 32.08061239 17.90625 32.1328125 C18.90625 33.1328125 18.90625 33.1328125 18.90625 39.1328125 C10.65625 39.1328125 2.40625 39.1328125 -6.09375 39.1328125 C-6.11665785 33.73928661 -6.13658526 28.34592829 -6.14868164 22.95239258 C-6.15372231 21.11612375 -6.16055477 19.27985896 -6.16918945 17.44360352 C-6.18126672 14.81004849 -6.18698081 12.17654634 -6.19140625 9.54296875 C-6.19656754 8.71692642 -6.20172882 7.89088409 -6.20704651 7.03981018 C-6.20724205 5.07044882 -6.15579152 3.10119636 -6.09375 1.1328125 C-4.40858046 -0.55235704 -2.30607212 0.00273231 0 0 Z " fill="#1C1B17" transform="translate(307.09375,323.8671875)"/>
<path d="M0 0 C1.29349365 0.00523682 2.5869873 0.01047363 3.91967773 0.01586914 C4.9496714 0.01799156 4.9496714 0.01799156 6.00047302 0.02015686 C8.20144949 0.0257706 10.40232557 0.03832532 12.60327148 0.05102539 C14.09220231 0.05603863 15.58113473 0.06060184 17.07006836 0.06469727 C20.72700223 0.07574446 24.38387707 0.09301826 28.04077148 0.11352539 C28.04077148 2.42352539 28.04077148 4.73352539 28.04077148 7.11352539 C24.41077148 7.11352539 20.78077148 7.11352539 17.04077148 7.11352539 C17.04077148 17.67352539 17.04077148 28.23352539 17.04077148 39.11352539 C14.308298 40.47976213 12.05878246 40.24195139 9.04077148 40.11352539 C8.04077148 39.11352539 8.04077148 39.11352539 7.92724609 36.0625 C7.92740514 34.71361268 7.93309537 33.36471925 7.94311523 32.01586914 C7.94453018 31.30701065 7.94594513 30.59815216 7.94740295 29.86781311 C7.95301706 27.59550827 7.96557185 25.32330064 7.97827148 23.05102539 C7.98328467 21.51391743 7.98784789 19.97680794 7.99194336 18.43969727 C8.00299106 14.66426897 8.02026507 10.88891368 8.04077148 7.11352539 C7.25831055 7.12512695 6.47584961 7.13672852 5.66967773 7.14868164 C4.65776367 7.15770508 3.64584961 7.16672852 2.60327148 7.17602539 C1.59393555 7.18762695 0.58459961 7.19922852 -0.45532227 7.21118164 C-2.95922852 7.11352539 -2.95922852 7.11352539 -3.95922852 6.11352539 C-4.08422852 3.61352539 -4.08422852 3.61352539 -3.95922852 1.11352539 C-2.95922852 0.11352539 -2.95922852 0.11352539 0 0 Z " fill="#1C1B17" transform="translate(200.959228515625,323.886474609375)"/>
<path d="M0 0 C10.23 0 20.46 0 31 0 C31 2.31 31 4.62 31 7 C27.37 7 23.74 7 20 7 C20 17.56 20 28.12 20 39 C13 40 13 40 11 39 C11 28.44 11 17.88 11 7 C7.37 7 3.74 7 0 7 C0 4.69 0 2.38 0 0 Z " fill="#1C1B17" transform="translate(230,324)"/>
<path d="M0 0 C1.794375 0.2165625 1.794375 0.2165625 3.625 0.4375 C9.05740383 1.06032337 14.50143124 1.34157654 19.9609375 1.62109375 C23 2 23 2 26 4 C26 4.66 26 5.32 26 6 C24.68 6 23.36 6 22 6 C22.7425 6.350625 23.485 6.70125 24.25 7.0625 C29.39915512 10.69031384 31.36924478 16.04432742 32.6953125 22 C33.15860068 25.04107113 33.12796625 27.92880992 33 31 C32.34 31 31.68 31 31 31 C30.89042969 32.11117187 30.78085937 33.22234375 30.66796875 34.3671875 C29.81580704 42.51953449 28.85423479 50.2555096 26 58 C24.515 57.505 24.515 57.505 23 57 C23.99 52.71 24.98 48.42 26 44 C25.66226563 44.91523438 25.32453125 45.83046875 24.9765625 46.7734375 C24.53054688 47.96195313 24.08453125 49.15046875 23.625 50.375 C23.18414063 51.55835938 22.74328125 52.74171875 22.2890625 53.9609375 C21 57 21 57 19 59 C17.515 59.495 17.515 59.495 16 60 C16.66502052 58.33267582 17.3321935 56.66621028 18 55 C18.46277344 53.83984375 18.92554688 52.6796875 19.40234375 51.484375 C19.91326322 50.23925506 20.42499585 48.99446851 20.9375 47.75 C21.18951172 47.11320312 21.44152344 46.47640625 21.70117188 45.8203125 C22.38484698 44.17669459 23.18571695 42.58298282 24 41 C25.485 40.505 25.485 40.505 27 40 C26.34 37.36 25.68 34.72 25 32 C24.01 32 23.02 32 22 32 C22.05800781 31.32195312 22.11601563 30.64390625 22.17578125 29.9453125 C22.53521966 22.53061149 21.42654678 17.06129068 17 11 C13.39803734 7.55495453 9.47335497 5.15199259 5 3 C5.3609375 3.55429688 5.721875 4.10859375 6.09375 4.6796875 C6.78984375 5.76636719 6.78984375 5.76636719 7.5 6.875 C7.9640625 7.59429687 8.428125 8.31359375 8.90625 9.0546875 C10 11 10 11 10 13 C9.01 13.33 8.02 13.66 7 14 C6.4121875 12.6696875 6.4121875 12.6696875 5.8125 11.3125 C3.93363045 7.87870392 1.86704545 5.63458231 -1 3 C-0.67 2.01 -0.34 1.02 0 0 Z " fill="#F1F4E8" transform="translate(535,197)"/>
<path d="M0 0 C3.29158052 0.97857799 4.68198405 1.42178917 6.375 4.5 C7.88734443 7.38032064 7.88734443 7.38032064 11.6875 8.3125 C12.780625 8.539375 13.87375 8.76625 15 9 C15.25 11.1875 15.25 11.1875 15 14 C14.360625 14.78375 13.72125 15.5675 13.0625 16.375 C10.53795498 19.58805729 10.31493197 21.9846174 10 26 C6.65747276 26.07427838 4.1964086 26.06546953 1 25 C0.38125 25.33 -0.2375 25.66 -0.875 26 C-3.61867229 27.2911399 -5.13937931 26.79461686 -8 26 C-8.03738281 25.38511719 -8.07476563 24.77023438 -8.11328125 24.13671875 C-8.17902344 23.32847656 -8.24476563 22.52023438 -8.3125 21.6875 C-8.37050781 20.88699219 -8.42851563 20.08648437 -8.48828125 19.26171875 C-9.08979139 16.60313574 -10.05232621 15.82335419 -12 14 C-12.1875 11.3125 -12.1875 11.3125 -12 9 C-10.7625 8.62875 -9.525 8.2575 -8.25 7.875 C-3.72162585 6.21299034 -2.23541939 4.19141135 0 0 Z " fill="#FAFBF3" transform="translate(608,56)"/>
<path d="M0 0 C1.875 0.125 1.875 0.125 4 1 C4.433125 1.804375 4.86625 2.60875 5.3125 3.4375 C7.6368532 6.96707338 9.97872491 7.16539574 14 8 C14 12 14 12 12.5 13.75 C10.24148433 17.13777351 10.86797291 19.97317365 11 24 C10.67 24.33 10.34 24.66 10 25 C8.45388318 24.88152361 6.91212805 24.70433122 5.375 24.5 C0.96738652 23.99410462 -2.65207382 24.25992746 -7 25 C-7.33 24.67 -7.66 24.34 -8 24 C-7.938125 22.7625 -7.87625 21.525 -7.8125 20.25 C-7.74367558 16.77123861 -7.95007804 16.07488294 -10 13 C-10.66 12.34 -11.32 11.68 -12 11 C-11.4375 9.0625 -11.4375 9.0625 -10 7 C-6.375 6.25 -6.375 6.25 -3 6 C-2.690625 5.195625 -2.38125 4.39125 -2.0625 3.5625 C-1 1 -1 1 0 0 Z " fill="#FAFBF4" transform="translate(584,20)"/>
<path d="M0 0 C1.875 0.3125 1.875 0.3125 4 1 C4.66 1.99 5.32 2.98 6 4 C7.96752828 5.06246527 9.96587579 6.07137808 12 7 C11.125 11.875 11.125 11.875 10 13 C9.63239269 15.32817964 9.29758419 17.6618385 9 20 C6.68756208 20.02685412 4.3750373 20.04632841 2.0625 20.0625 C0.77472656 20.07410156 -0.51304687 20.08570312 -1.83984375 20.09765625 C-5 20 -5 20 -6 19 C-6.144375 17.865625 -6.28875 16.73125 -6.4375 15.5625 C-6.64847551 11.95941003 -6.64847551 11.95941003 -9 10 C-8.9375 8 -8.9375 8 -8 6 C-6.34561387 5.30341637 -4.67745682 4.63903117 -3 4 C-1.19651922 1.98682781 -1.19651922 1.98682781 0 0 Z " fill="#FBFCF6" transform="translate(542,0)"/>
<path d="M0 0 C2.0245738 1.93254772 3.42105792 3.63158688 5 6 C8.06556598 6.73343428 8.06556598 6.73343428 11 7 C10.01 8.0209375 10.01 8.0209375 9 9.0625 C6.56114128 12.64457375 6.66707415 14.75519536 7 19 C6.09507812 18.85691406 6.09507812 18.85691406 5.171875 18.7109375 C4.37265625 18.60007812 3.5734375 18.48921875 2.75 18.375 C1.96109375 18.25898437 1.1721875 18.14296875 0.359375 18.0234375 C-2.32152459 17.99680605 -3.72694089 18.63407916 -6 20 C-6.03738281 19.39671875 -6.07476563 18.7934375 -6.11328125 18.171875 C-6.56253341 12.00632228 -6.56253341 12.00632228 -10 7 C-8.906875 6.773125 -7.81375 6.54625 -6.6875 6.3125 C-2.87511789 5.34252805 -2.87511789 5.34252805 -1.0625 2.375 C-0.711875 1.59125 -0.36125 0.8075 0 0 Z " fill="#B2CC25" transform="translate(609,60)"/>
<path d="M0 0 C0.66 0.33 1.32 0.66 2 1 C2.2475 1.825 2.495 2.65 2.75 3.5 C3.36875 4.7375 3.36875 4.7375 4 6 C7.05272465 6.89830839 7.05272465 6.89830839 10 7 C9 10 9 10 7 11 C6.53476937 12.89533342 6.53476937 12.89533342 6.375 15.0625 C6.25125 16.361875 6.1275 17.66125 6 19 C4.7625 18.814375 3.525 18.62875 2.25 18.4375 C-0.76279577 18.05288777 -3.10010827 17.9125406 -6 19 C-5.9071875 17.3603125 -5.9071875 17.3603125 -5.8125 15.6875 C-5.62756763 12.08247389 -5.62756763 12.08247389 -7.5 10.1875 C-7.995 9.795625 -8.49 9.40375 -9 9 C-9 8.34 -9 7.68 -9 7 C-5.535 6.505 -5.535 6.505 -2 6 C-1.855625 5.195625 -1.71125 4.39125 -1.5625 3.5625 C-1 1 -1 1 0 0 Z " fill="#B3CD2A" transform="translate(585,23)"/>
<path d="M0 0 C0.33 3.3 0.66 6.6 1 10 C0.01 10.33 -0.98 10.66 -2 11 C-2 9.68 -2 8.36 -2 7 C-2.50660156 8.24716797 -2.50660156 8.24716797 -3.0234375 9.51953125 C-3.46945312 10.60621094 -3.91546875 11.69289062 -4.375 12.8125 C-4.81585937 13.89144531 -5.25671875 14.97039062 -5.7109375 16.08203125 C-7 19 -7 19 -9 22 C-10.093125 21.855625 -11.18625 21.71125 -12.3125 21.5625 C-17.529258 20.90689307 -22.76234747 20.45251777 -28 20 C-28 19.67 -28 19.34 -28 19 C-26.948125 18.896875 -25.89625 18.79375 -24.8125 18.6875 C-21.00235261 18.00042424 -19.13340374 17.16927951 -16 15 C-14.989375 14.401875 -13.97875 13.80375 -12.9375 13.1875 C-8.84384737 10.13903527 -6.60779103 6.8233731 -5 2 C-1.63157895 0 -1.63157895 0 0 0 Z M-12 16 C-12 16.99 -12 17.98 -12 19 C-11.34 18.67 -10.68 18.34 -10 18 C-10 17.34 -10 16.68 -10 16 C-10.66 16 -11.32 16 -12 16 Z " fill="#FAEDF6" transform="translate(561,227)"/>
<path d="M0 0 C-0.25390625 1.87109375 -0.25390625 1.87109375 -1 4 C-2.77734375 5.16015625 -2.77734375 5.16015625 -4.9375 6.0625 C-8.23258319 7.45588364 -8.90387694 7.85581541 -11 11 C-12.00244527 16.94080724 -11.38012579 22.19454259 -7.91015625 27.171875 C-3.99331597 30.92050742 1.05617799 32.91839073 6 35 C3.40323049 35.97378856 2.23157127 36.07793264 -0.4375 35.1796875 C-7.38371966 31.64304517 -11.38743171 28.54132108 -14 21 C-14.65142393 15.79618326 -14.62184497 11.36805893 -12.4375 6.5625 C-8.92000507 2.86462072 -5.3081128 0 0 0 Z " fill="#215D88" transform="translate(516,73)"/>
<path d="M0 0 C3.465 1.98 3.465 1.98 7 4 C6.34 6.97 5.68 9.94 5 13 C4.2575 12.814375 3.515 12.62875 2.75 12.4375 C-0.22840916 11.77947289 -0.22840916 11.77947289 -4 13 C-4.66 10.03 -5.32 7.06 -6 4 C-4.35 3.67 -2.7 3.34 -1 3 C-0.67 2.01 -0.34 1.02 0 0 Z " fill="#B4CE2C" transform="translate(543,4)"/>
<path d="M0 0 C4.80767922 1.14126217 8.79294575 3.0370835 12.08984375 6.74609375 C12.41984375 7.32359375 12.74984375 7.90109375 13.08984375 8.49609375 C10.40234375 8.80859375 10.40234375 8.80859375 7.08984375 8.49609375 C5.42317708 6.82942708 3.75651042 5.16276042 2.08984375 3.49609375 C-1.82652413 2.93661262 -4.59951104 3.28899694 -7.91015625 5.49609375 C-9.14020606 7.95619338 -9.04329652 9.62782181 -9.03515625 12.37109375 C-9.03773438 13.23476562 -9.0403125 14.0984375 -9.04296875 14.98828125 C-8.92039546 17.30275346 -8.5598207 19.27898491 -7.91015625 21.49609375 C-11.01093676 18.53012978 -12.10309628 16.61433136 -12.34765625 12.30859375 C-12.28002184 7.66436457 -11.00019224 5.03855966 -7.74609375 1.75390625 C-5.2624708 0.05236032 -2.98063659 -0.28032859 0 0 Z " fill="#29638B" transform="translate(531.91015625,84.50390625)"/>
<path d="M0 0 C0.33 0 0.66 0 1 0 C0.40021818 10.3962182 -4.58482711 19.31307248 -9.125 28.5 C-9.46152588 29.18255859 -9.79805176 29.86511719 -10.14477539 30.56835938 C-11.8470499 33.95019458 -13.59304479 37.06979366 -16 40 C-17 37 -17 37 -15.98364258 34.55493164 C-15.19703247 33.12201782 -15.19703247 33.12201782 -14.39453125 31.66015625 C-13.82283203 30.59603516 -13.25113281 29.53191406 -12.66210938 28.43554688 C-11.74655273 26.76588867 -11.74655273 26.76588867 -10.8125 25.0625 C-6.32925213 16.88313938 -2.63115998 8.96696895 0 0 Z " fill="#9ECF5C" transform="translate(561,238)"/>
<path d="M0 0 C2.97 0.33 5.94 0.66 9 1 C8.01 2.485 8.01 2.485 7 4 C6.34 3.67 5.68 3.34 5 3 C5.3609375 3.55429688 5.721875 4.10859375 6.09375 4.6796875 C6.78984375 5.76636719 6.78984375 5.76636719 7.5 6.875 C7.9640625 7.59429687 8.428125 8.31359375 8.90625 9.0546875 C10 11 10 11 10 13 C9.01 13.33 8.02 13.66 7 14 C6.4121875 12.6696875 6.4121875 12.6696875 5.8125 11.3125 C3.93363045 7.87870392 1.86704545 5.63458231 -1 3 C-0.67 2.01 -0.34 1.02 0 0 Z " fill="#F2F6F9" transform="translate(535,197)"/>
<path d="M0 0 C0.66 0 1.32 0 2 0 C1.50683684 4.93163163 0.70216003 8.79663996 -2 13 C-4.1875 13.875 -4.1875 13.875 -6 14 C-4.16508812 9.25981099 -2.08058541 4.63586749 0 0 Z " fill="#F7EEEE" transform="translate(557,243)"/>
<path d="M0 0 C0.33 0 0.66 0 1 0 C1.18451025 13.6332574 1.18451025 13.6332574 0 20 C-0.99 19.34 -1.98 18.68 -3 18 C-2 12 -1 6 0 0 Z " fill="#2DB1E8" transform="translate(618,113)"/>
<path d="M0 0 C0.99 0 1.98 0 3 0 C3.70125 0.7425 4.4025 1.485 5.125 2.25 C8.7134575 5.68243761 12.42419565 7.21553599 17 9 C14.35672682 10.00579304 13.23258313 10.08377402 10.52734375 9.109375 C9.67269531 8.66078125 8.81804688 8.2121875 7.9375 7.75 C7.08027344 7.31171875 6.22304688 6.8734375 5.33984375 6.421875 C3.17901503 5.10878376 1.59855699 3.94971541 0 2 C0 1.34 0 0.68 0 0 Z " fill="#3F7398" transform="translate(505,99)"/>
<path d="M0 0 C0.33 0 0.66 0 1 0 C0.58411954 6.19518473 -0.60251894 11.26689311 -3 17 C-4.1484375 15.421875 -4.1484375 15.421875 -5 13 C-4.1015625 9.765625 -4.1015625 9.765625 -2.625 6.25 C-2.14289062 5.07953125 -1.66078125 3.9090625 -1.1640625 2.703125 C-0.77992188 1.81109375 -0.39578125 0.9190625 0 0 Z " fill="#EF279E" transform="translate(559,231)"/>
<path d="M0 0 C1 3 1 3 -0.1875 6.625 C-2 10 -2 10 -4.1875 10.9375 C-4.785625 10.958125 -5.38375 10.97875 -6 11 C-4.54955729 6.89041233 -2.48889248 3.56741255 0 0 Z " fill="#96CC4F" transform="translate(544,276)"/>
<path d="M0 0 C0.99 0.33 1.98 0.66 3 1 C1.75 3.9375 1.75 3.9375 0 7 C-2.1875 7.875 -2.1875 7.875 -4 8 C-2.87548273 5.0280615 -1.77706209 2.66559313 0 0 Z " fill="#E9F5F2" transform="translate(542,274)"/>
<path d="M0 0 C2.08379509 3.84700632 3.49686624 7.90054429 5 12 C4.01 12 3.02 12 2 12 C0.00214565 7.8794254 -0.17835515 4.54805635 0 0 Z " fill="#185783" transform="translate(502,87)"/>
<path d="M0 0 C6.625 -0.25 6.625 -0.25 10 2 C10 2.66 10 3.32 10 4 C8.02 4 6.04 4 4 4 C4 3.01 4 2.02 4 1 C2.68 0.67 1.36 0.34 0 0 Z " fill="#CED6E1" transform="translate(551,199)"/>
<path d="M0 0 C2.97 0.33 5.94 0.66 9 1 C8.01 2.485 8.01 2.485 7 4 C6.01 4 5.02 4 4 4 C4 3.01 4 2.02 4 1 C2.68 0.67 1.36 0.34 0 0 Z " fill="#C9D4E0" transform="translate(535,197)"/>
</svg>
